<svg xmlns="http://www.w3.org/2000/svg" xmlns:xlink="http://www.w3.org/1999/xlink" width="30" height="21" viewBox="0 0 30 21">
  <defs>
    <clipPath id="clip-path">
      <rect id="사각형_26722" data-name="사각형 26722" width="18.443" height="20.622" transform="translate(0 0)" fill="none"/>
    </clipPath>
  </defs>
  <g id="그룹_25118" data-name="그룹 25118" transform="translate(-646 -167)">
    <g id="그룹_25081" data-name="그룹 25081" transform="translate(651.779 167.189)">
      <g id="그룹_25080" data-name="그룹 25080" clip-path="url(#clip-path)">
        <path id="패스_3187" data-name="패스 3187" d="M9.154,0A5.014,5.014,0,0,0,4.3,5.157c0,2.848,2.175,9.667,4.858,9.667s4.858-6.819,4.858-9.667A5.014,5.014,0,0,0,9.154,0m0,8.112a3.167,3.167,0,1,1,3.167-3.167A3.167,3.167,0,0,1,9.154,8.112" fill="#d6d6d6"/>
        <path id="패스_3188" data-name="패스 3188" d="M13.266,12.859a2.628,2.628,0,0,1,1.527,2.124c0,1.718-2.525,3.111-5.639,3.111S3.515,16.7,3.515,14.983A2.685,2.685,0,0,1,5.143,12.8" fill="none" stroke="#d6d6d6" stroke-linecap="round" stroke-width="1"/>
        <path id="패스_3189" data-name="패스 3189" d="M4.19,10.8C1.96,11.733.5,13.26.5,14.99c0,2.834,3.905,5.132,8.722,5.132s8.721-2.3,8.721-5.132c0-1.73-1.46-3.257-3.69-4.187" fill="none" stroke="#d6d6d6" stroke-linecap="round" stroke-width="1"/>
        <path id="패스_3190" data-name="패스 3190" d="M5.143,12.8a2.687,2.687,0,0,0-1.628,2.185c0,1.719,2.525,3.112,5.639,3.112s5.639-1.393,5.639-3.112a2.627,2.627,0,0,0-1.527-2.124" fill="none" stroke="#d6d6d6" stroke-linecap="round" stroke-width="1"/>
      </g>
    </g>
    <rect id="사각형_26755" data-name="사각형 26755" width="30" height="21" transform="translate(646 167)" fill="none"/>
  </g>
</svg>
